<svg viewBox="0 0 94 222" xmlns="http://www.w3.org/2000/svg"><path d="m91.4 27.3.4-.7c1.3-2.3 2-5 2-7.7v-2.4c0-8.6-7-15.7-15.7-15.7h-62.4c-8.7 0-15.7 7-15.7 15.7v2.4c0 2.7.7 5.4 2 7.7l.4.7-.4.7c-1.3 2.5-2 5.2-2 8v104.3c0 1.3.1 6 1.9 10.8 1 2.9 2.5 5.3 4.3 7.2l.4.4v.5c.8 11.4 3.6 23.7 7.7 33.7 8.7 21.4 20.4 27.5 28.7 28.8h.1c.4.1.7.1 1.1.1h.4.1c.3 0 .5 0 .7.1h1.4c17.7 0 27.6-16.9 32-27.1 4.5-10.4 7.5-23.4 8.4-35.8v-.5l.4-.4c1.8-1.9 3.3-4.3 4.3-7.2 1.7-4.8 1.9-9.5 1.9-10.8v-104.1c0-2.8-.7-5.6-2-8z" fill="#010202"/><path d="m79.8 152.1c0 24-10.8 59.1-29.8 59.1s-29.8-35.9-29.8-59.1" fill="#df9f26"/><path d="m13.8 36c0-3.4 2.7-6.1 6.1-6.1h60.1c3.4 0 6.1 2.7 6.1 6.1v104.3c0 3.4-1.2 11.8-6.1 11.8h-60.1c-4.9 0-6.1-8.5-6.1-11.8z" fill="#fec611"/><path d="m19.9 29.9h30.1 30s-1.1-.6-1.1-3.1 1.1-3.1 1.1-3.1h-30.1-30s1.1.7 1.1 3.1c0 2.5-1.1 3.1-1.1 3.1" fill="#ab892e"/><path d="m13.8 16.5c0-2.7 2.2-4.9 4.9-4.9h62.5c2.7 0 4.9 2.2 4.9 4.9v2.4c0 2.7-2.2 4.9-4.9 4.9h-62.5c-2.7 0-4.9-2.2-4.9-4.9z" fill="#fec611"/><path d="m80.1 16.5v2.4c0 2.7-2.2 4.9-4.9 4.9h-1.2s-1.1.6-1.1 3.1 1.1 3.1 1.1 3.1c3.4 0 6.1 2.7 6.1 6.1v104.3c0 3.4-1.2 11.8-6.1 11.8h-.2c0 22.7-9.7 55.3-26.8 58.8 1 .2 2 .3 3 .3 19 0 29.8-35.1 29.8-59.1h.2c4.9 0 6.1-8.5 6.1-11.8v-104.4c0-3.4-2.7-6.1-6.1-6.1 0 0-1.1-.5-1.1-3.1s1.1-3.1 1.1-3.1h1.2c2.7 0 4.9-2.2 4.9-4.9v-2.4c0-2.7-2.2-4.9-4.9-4.9h-6c2.7.1 4.9 2.3 4.9 5" fill="#010202"/><path d="m39.4 198c4.2 4.1 5.9 1.3 4.4-3.2-4.3-12.8-6-23-6-42.5v-128.5-2.2-10h-11.4v10 2.2 128.5c0 25.3 8.5 41.3 13 45.7" fill="#fefefe"/><g fill="none" stroke="#010202" stroke-linecap="round" stroke-linejoin="round" stroke-width="2.551"><path d="m79.8 152.1c0 24-10.8 59.1-29.8 59.1s-29.8-35.9-29.8-59.1"/><path d="m13.8 36c0-3.4 2.7-6.1 6.1-6.1h60.1c3.4 0 6.1 2.7 6.1 6.1v104.3c0 3.4-1.2 11.8-6.1 11.8h-60.1c-4.9 0-6.1-8.5-6.1-11.8z"/><path d="m19.9 29.9h30.1 30s-1.1-.6-1.1-3.1 1.1-3.1 1.1-3.1h-30.1-30s1.1.7 1.1 3.1c0 2.5-1.1 3.1-1.1 3.1z"/><path d="m13.8 16.5c0-2.7 2.2-4.9 4.9-4.9h62.5c2.7 0 4.9 2.2 4.9 4.9v2.4c0 2.7-2.2 4.9-4.9 4.9h-62.5c-2.7 0-4.9-2.2-4.9-4.9z"/></g></svg>