<svg enable-background="new 0 0 207.9 150.6" viewBox="0 0 207.9 150.6" xmlns="http://www.w3.org/2000/svg"><path d="m191.4 0c-.1 0-.1 0-.2 0h-174.6c-7 0-12.6 5.7-12.6 12.7v25c0 7 5.7 12.8 12.7 12.8h47.9c-11.2 11.5-24.3 29.2-28.2 45-.8 3.2-.9 5.8.8 10 .4.9.7 1.8 1.2 3 4.1 10.7 11.1 28.5 26.6 36.3 10.1 5.1 18.4 5.8 25.2 5.8 2.2 0 4.4-.1 6.5-.2 4.1-.2 8.6-.1 12.8 0 2.1.1 4.3.2 6.5.2 2.1 0 4.4-.1 6.8-.3 5.3-.5 11.4-2 18.4-5.5 15.5-7.8 22.5-25.6 26.6-36.3.4-1.1.8-2.1 1.2-3 1.8-4.3 1.7-6.9.9-10.1-2.1-8.3-6.7-17-12.1-25.2l1.4.9c.9.5 1.8.8 2.7.8 1.9 0 3.7-1.2 4.5-3.1l7.6-18.4h17.4c6.9 0 12.6-5.7 12.6-12.8v-25c-.2-5.8-5.7-12.6-12.6-12.6zm-45.4 52.3-.4 2.3c-1.3-1.5-2.6-2.8-3.8-4.1h4.9c-.4.5-.6 1.1-.7 1.8z" fill="#231f20"/><path d="m165.1 96.6c-5.1-20.3-27.5-45.6-38.2-52.7-2.9-1.9-6.4-2.1-9.4-1.4-5 1.1-8.8 3.6-14.4 3.6-5.5 0-9.4-2.5-14.4-3.6-3-.7-6.5-.5-9.4 1.4-10.7 7.2-33.1 32.4-38.2 52.7-.5 2.2-.7 3.8.6 7 3.7 9.1 10.1 29 25.5 36.8 14.2 7.1 24.2 4.9 35.9 4.9s21.7 2.2 35.9-4.9c15.4-7.7 21.8-27.6 25.5-36.8 1.3-3.2 1.2-4.8.6-7zm-56.7 19.3c-1.2.3-2.4.5-3.4.6-.6.1-1.2.1-1.8.2-.5 0-1.2-.1-1.8-.2-1.1-.1-2.2-.3-3.4-.6-18.3-4.6-34.4 4.7-43.9-12.2-.4-.7-.5-1.4-.2-2.1 2.3-5 6.7-9.6 11.4-13.4 3.6-3 7.3-5.6 10.2-7.4.6-.4 1.2-.8 1.7-1.1 5-3.3 8-5.6 12.7-6.6 3.8-.8 8.7-.1 12.5 0h1.7c3.9-.1 8.8-.8 12.5 0 4.7 1 7.7 3.4 12.7 6.6.5.3 1.1.7 1.7 1.1 2.8 1.9 6.6 4.4 10.2 7.4 4.6 3.9 9.1 8.5 11.4 13.4.3.7.2 1.4-.2 2.1-9.6 16.9-25.7 7.6-44 12.2z" fill="#e6262b"/><path d="m122.7 130.9c-6.7 3.4-12.4 2.9-19.5 2.9s-12.8.5-19.5-2.9c-3.5-1.9-3.9-4.1-3.4-5.3 1-2.4 2.7-3.6 8-4 6.3-.5 11 2 14.9 2 3.8 0 8.5-2.5 14.9-2 5.3.4 7 1.6 8 4 .5 1.2.1 3.4-3.4 5.3zm-29.3-77.8c-.5-1-1.1-1.9-1.7-2.6-1.5-1.7-3.7-2.9-6.4-2.9-2.4 0-4.4 1.2-5.7 2.9-.8 1-1.3 2.2-1.3 3.3 0 2.8 3.9 3.8 7.8 3.8 4 0 8.5-1.9 7.3-4.5z" fill="#f05b40"/><path d="m165.4 98.3c-1.4.7-10.6 1.8-13 5.4.2-.4.3-.7.4-1v-.1c0-.3 0-.6-.2-1-1.4-3.1-3.7-6-6.4-8.7-.3-.3-.7-.7-1-1h.1c.9-.2 2.2-.8 3.1-2.6l.3-.7c2.6 2.4 5.2 4.7 7.2 6.1 6.5 4.4 9.4 3.6 9.5 3.6zm-49.8-33.6c-4.9 0-9 .7-12.4.7-3.5 0-7.5-.7-12.4-.7-6.6 0-14.3 8.7-24 15.8-4 2.9-11.7 11-16.3 14.2-6.5 4.4-9.4 3.6-9.4 3.6 1.4.7 10.5 1.8 13 5.4-.1-.2-.2-.5-.3-.7 0-.1-.1-.2-.1-.3 0-.2 0-.3 0-.5 0-.2.1-.3.1-.5.3-.6.6-1.2 1-1.9.7-1.2 1.5-2.4 2.4-3.6 2.3-2.9 5.1-5.6 8-8 1.4-1.1 2.7-2.2 4-3.2s2.6-1.9 3.8-2.7c.4-.3.9-.6 1.3-.8s.7-.4 1-.6c0 0 .1 0 .1-.1.5-.3 1-.7 1.5-1 0 0 .1 0 .1-.1 0 0 .1 0 .1-.1 5-3.3 8-5.6 12.7-6.6 1.4-.3 3-.4 4.6-.4 1.1 0 2.2.1 3.3.1s2.1.1 3.2.2c.4 0 .9 0 1.3.1h.2 1.6.1c.5 0 1 0 1.5-.1 1-.1 2.1-.1 3.2-.2s2.2-.1 3.3-.1c1.6 0 3.2.1 4.6.4 4.7 1 7.7 3.4 12.6 6.5 0 0 .1 0 .1.1 0 0 .1 0 .1.1.5.3 1 .7 1.6 1 0 0 .1 0 .1.1 1 .7 2.1 1.4 3.3 2.3.9.6 1.8 1.2 2.7 1.9s1.8 1.3 2.7 2.1c.1.1.2.1.3.2 0-.2 0-.5 0-.7l.9-5c-.5-.4-1-.8-1.4-1.1-9.7-7.1-17.5-15.8-24.1-15.8z" fill="#c82029"/><path d="m191.5 0c-.1 0-.1 0-.2 0h-174.7c-6.9 0-12.6 5.7-12.6 12.7v25c0 7 5.7 12.8 12.7 12.8h47.9c-11.2 11.5-24.2 29.2-28.2 45-.8 3.2-.9 5.8.8 10 .4.9.7 1.8 1.2 3 4.1 10.7 11.1 28.5 26.6 36.3 10.1 5.1 18.4 5.8 25.2 5.8 2.2 0 4.4-.1 6.5-.2 4.1-.2 8.6-.1 12.8 0 2.1.1 4.3.2 6.5.2 6.8 0 15.1-.7 25.2-5.8 15.5-7.8 22.5-25.6 26.6-36.3.4-1.1.8-2.1 1.2-3 1.8-4.3 1.7-6.9.9-10.1-2.1-8.3-6.7-17.1-12.2-25.2l1.5 1c.9.5 1.8.8 2.7.8 1.9 0 3.7-1.2 4.5-3.1l7.6-18.4h17.4c6.9 0 12.6-5.7 12.6-12.8v-25c-.1-5.9-5.6-12.7-12.5-12.7zm-26.4 96.6c.6 2.2.7 3.8-.6 7-3.7 9.2-10.1 29.1-25.5 36.8-14.2 7.1-24.2 4.9-35.9 4.9s-21.7 2.2-35.9-4.9c-15.4-7.8-21.8-27.7-25.5-36.8-1.3-3.2-1.1-4.8-.6-7 4-16.1 19-35.3 30.3-46.1 2-1.9 3.9-3.5 5.5-4.9.8-.6 1.6-1.2 2.3-1.7 2.9-1.9 6.4-2.1 9.4-1.4 3.6.8 6.6 2.3 10.1 3.1 1.3.3 2.8.5 4.3.5 1.6 0 3-.2 4.3-.5 3.5-.8 6.5-2.3 10.1-3.1 3-.7 6.5-.5 9.4 1.4.7.5 1.5 1.1 2.3 1.7 1.7 1.3 3.6 3 5.6 4.9 3.1 2.9 6.4 6.5 9.8 10.5l-3.5 20.6-.9 5v.7.1.7h-.2c-1.1.1-2.3.1-3.4.1-3.4 0-4.8-1.2-5.2-4.3-.1-.6-.1-1.3-.2-1.9 0-.2 0-.4 0-.6v-.5-.1s-.1 0-.1-.1c-.6-.4-1.1-.7-1.6-1 0 .6.1 1.2.1 1.7-.1 2.2-.2 4.3-.4 5.8-.3 1.9-1.4 3.2-3 3.5-.9.2-2 .3-3 .4-5.3.5-11.8.2-14.7-.2-2.1-.3-4.3-1.2-4.3-5v-6.7-6.2h-.1-1.6v6.2 6.8c0 3.8-2.2 4.7-4.3 5-3.4.6-12.2.9-17.7-.2-1.3-.2-2.2-1-2.7-2.2-.1-.4-.3-.8-.3-1.3-.2-1.6-.3-3.6-.4-5.8v-.1c0-.6.1-1.2.1-1.8 0 0-.1 0-.1.1-.5.3-1 .6-1.5 1 0 0-.1 0-.1.1v.6.4c0 .7-.1 1.4-.2 2.1-.4 3.1-1.8 4.3-5.2 4.3-1.1 0-2.3 0-3.4-.1h-1.3c-2.9 2.4-5.8 5.1-8 8-.9 1.2-1.7 2.4-2.4 3.6-.3.6-.7 1.2-1 1.9-.1.2-.1.4-.2.5s0 .3 0 .5c0 .1 0 .2.1.3.1.2.2.4.4.6 9.5 16.9 25.6 7.6 43.9 12.2 1.2.3 2.3.5 3.4.6.7 0 1.3.1 1.8.1.6 0 1.2 0 1.8-.1 1-.1 2.2-.3 3.4-.6 18.3-4.6 34.4 4.7 43.9-12.2.2-.3.3-.7.4-1 0-.3 0-.6-.2-1-1.4-3.1-3.7-6-6.4-8.7-.3-.3-.7-.7-1-1h.1c.9-.2 2.2-.8 3.1-2.6l.3-.7 6.3-13.5c4.6 7.2 8.4 14.7 10.1 21.6zm-19.1-44.3-.4 2.4c-1.3-1.5-2.6-2.9-3.9-4.2h4.9c-.2.5-.5 1.2-.6 1.8zm53.1-14.5c0 4.4-3.5 7.9-7.8 7.9h-20.2c-.2 0-.5.1-.6.4l-1.8 4.4-6.8 16.5c0 .1-.1.1-.1.1l-5.2-3.4c-.3-.2-.7-.3-1.1-.2s-.7.4-.9.8l-.4.9-2.4 5.1-6.3 13.6 3.1-17.9 1.1-6.5 1.1-6.1 5.1 3.5c.3.2.7.3 1 .1.4-.1.6-.5.7-.9l.9-5.4.7-4.2c0-.2 0-.4-.1-.5s-.3-.2-.5-.2h-21.7c-2.7-2.5-5.1-4.5-7.1-5.8-2.6-1.7-5.7-2.6-9-2.6-1.4 0-2.8.2-4.2.5-2.1.5-3.9 1.1-5.7 1.7-2.6.9-4.9 1.7-7.6 1.7s-5-.8-7.6-1.7c-1.8-.6-3.6-1.3-5.7-1.7-1.4-.3-2.8-.5-4.2-.5-3.4 0-6.5.9-9 2.6-2 1.3-4.4 3.3-7.1 5.8h-53.2c-4.3 0-7.8-3.5-7.8-7.9v-25c0-4.4 3.5-7.9 7.8-7.9h174.7c4.3 0 7.8 3.6 7.9 8zm-173.2-18.5c-.3 0-.6.2-.9.4-.8.7-1.7 1.7-2.9 3.1-1.4 1.7-2.4 2.8-2.8 3.3-.4.4-.7.7-1 1.1-.4.4-.7.8-1 1.1-.2.3-.3.5-.3.7 0 .4.2.5.5.5.2 0 .5-.1.8-.4.3-.2.5-.4.8-.6s1.3-.5 3.1-.9c1.7-.4 2.7-.6 3.2-.6.2 0 .2.2.2.7v.4.4c0 .8.2 1.2.6 1.2.5 0 .9-.3 1.1-.9.2-.4.2-1.2.2-2.2 0-1.3-.2-3-.6-5-.2-1.5-.6-2.3-1-2.3zm-.5 5.7c0 .1-.2.1-.4.1-1 .2-2 .5-3 .7-.2.1-.3.1-.4.1.8-.9 1.4-1.6 1.8-2 .3-.3.5-.6.8-.9.4-.5.7-.7.8-.7s.2.3.3 1 .2 1.2.2 1.5c0 .1 0 .2-.1.2zm8.7-2.3c-.1.1-.2.2-.4.3h.1c.1 0 .5-.1 1.2-.2 1.5-.3 2.6-.4 3.2-.4.7 0 1.2.1 1.6.3.5.2.7.6.7 1.1 0 .2 0 .5-.2.8-.3.8-1 1.6-2.2 2.6-.9.8-1.8 1.4-2.8 2-1.3.7-2.7 1.1-4 1.1-.7 0-1.4-.2-1.9-.5-.6-.4-.9-.9-.9-1.5 0-.4.1-.7.3-1.1s.4-.6.7-.8c.3-.3.6-.4.8-.4s.3.1.4.2.2.3.2.5v.2s-.1.1-.2.3c-.1.1-.1.2-.1.3 0 .3.5.4 1.4.4 1.9 0 4-1 6.1-3 .4-.4.6-.6.7-.8 0-.1-.2-.2-.6-.2-1.2 0-2.9.3-5 .8-.3.1-.7.2-1.1.3s-.8.1-1 .1c-.7 0-1-.2-1-.7 0-.3.1-.5.3-.8 1.2-1.7 3.2-3.2 5.9-4.3 1.7-.7 3-1.1 4-1.1.4 0 .7.1 1 .2.3.2.5.4.5.8 0 .1 0 .3-.1.4-.2.4-.4.7-.8.7-.2 0-.3-.1-.4-.2-.2-.1-.4-.1-.5-.1-.7 0-1.6.3-2.9.8-1.1.8-2.1 1.3-3 1.9zm18.2-2.9c0 .2 0 .3-.1.5-.6 1.6-2.3 3.1-5.2 4.6-.2.1-.6.3-1.1.6-.1 0-.3.1-.4.1 1.1.5 1.9.8 2.4 1.1 1.1.7 1.5 1.3 1.3 1.9-.1.2-.2.5-.4.7s-.4.3-.6.3-.3-.1-.5-.3-.4-.4-.5-.5c-.2-.2-.4-.3-.6-.4-.3-.2-.9-.4-1.8-.8-1-.4-1.6-.6-1.8-.6 0 .1-.1.4-.3.9-.4 1.1-.8 1.6-1.1 1.6-.2 0-.4-.1-.5-.2-.1-.2-.2-.3-.1-.6.1-.6.3-1.5.7-2.6-.1-.4.1-.7.4-1l.5-1.5c.2-.6.4-1.1.5-1.5.1-.3.2-.7.4-1.3.3-.8.7-1.2 1.1-1.2s.6.2.6.7c0 .4-.1.9-.4 1.6-.1.4-.3.7-.4 1.1-.2.4-.3.8-.3 1.1.1 0 .2 0 .4-.1 1.8-.6 3.4-1.4 4.9-2.7.3-.2.5-.5.8-.8.2-.3.5-.6.7-.9s.5-.4.8-.4c.4 0 .6.2.6.6zm16.9-.6c.3.7.5 2.2.5 4.6 0 2.1-.1 3.8-.3 4.9-.1.3-.2.5-.4.7s-.4.3-.7.3c-.4 0-.7-.3-.7-.8 0-.2 0-.7 0-1.6.1-1.3.1-2.7.1-4.1 0-.2 0-.4 0-.8-.3.3-.6.7-.9 1.3-.3.4-.5.9-.8 1.3-.4.6-1.1 1.5-1.9 2.8-.1.1-.2.3-.3.6s-.3.5-.4.6c-.3.4-.7.5-1.2.5-.3 0-.4 0-.5-.2-.1-.1-.2-.3-.2-.5 0-.3 0-.5 0-.8 0-.4 0-1.1.1-2s.1-1.6.1-2.1c0-.3 0-.6 0-.8-.1.2-.3.5-.5.9-.6 1.1-1.2 2-1.7 2.9-.3.5-.7 1-1 1.4-.6.7-1 1-1.2 1-.3 0-.5-.2-.5-.5 0-.1 0-.2.1-.4.2-.5.6-1.2 1.1-2.2.4-.7.9-1.5 1.3-2.2s.8-1.5 1.2-2.2c.5-.9.9-1.6 1.3-2.1.3-.5.7-.7 1-.7s.5.2.7.6c.2.6.3 1.6.4 2.9 0 .6 0 1.7-.1 3 0 .2 0 .3 0 .2.5-.6 1.2-1.7 2.1-3.4.9-1.6 1.6-2.7 2.1-3.3.3-.3.6-.5.9-.5 0 .3.2.4.3.7zm14.7.7c0 .1 0 .3-.1.4-.1.3-.2.5-.4.7s-.4.3-.7.3c-.1 0-.3-.1-.4-.2-.4-.3-1.2-.5-2.3-.5-1.4 0-2.6.2-3.4.6-.3.1-.6.4-.9.7s-.4.7-.5 1h.2.5c.3-.1.4-.1.5-.1 1.7-.2 3.1-.3 4.2-.3.6 0 .9.2.9.6 0 .2 0 .4-.1.6-.1.4-.4.6-.8.7s-1.5.2-3.3.3c-1.6.1-2.6.2-2.9.3-.2.1-.3.3-.5.7-.1.4-.2.7-.2 1s0 .4.2.5c.1 0 .3.1.6.1 1 0 2.7-.4 5.1-1.1.1-.1.3-.1.4-.1.4 0 .5.2.6.6 0 .4-.2.8-.6 1.1-.7.4-1.6.8-2.9 1.2-1.2.3-2.2.5-2.9.5s-1.2-.1-1.7-.4-.7-.8-.7-1.4c0-.4.1-1.1.4-1.9.2-.5.4-1 .7-1.6 0-.2.1-.5.3-.7.2-.5.5-1 .7-1.5.3-.6.6-1 .9-1.4 1.1-1.2 2.9-1.9 5.1-1.9.9 0 2 .1 3.2.3.4.1.6.1.7.2 0 .3.1.4.1.7zm12.3-1.1c-.3 0-.6.2-.9.4-.8.7-1.7 1.7-2.9 3.1-1.4 1.7-2.4 2.8-2.8 3.3-.4.4-.7.7-1 1.1-.4.4-.7.8-1 1.1-.2.2-.2.4-.2.6 0 .4.2.5.5.5.2 0 .5-.1.8-.4.3-.2.5-.4.8-.6s1.3-.5 3-.9 2.7-.6 3.2-.6c.2 0 .2.2.2.7v.4.4c0 .8.2 1.2.6 1.2.5 0 .9-.3 1.1-.9.2-.4.2-1.2.2-2.2 0-1.3-.2-3-.6-5-.2-1.4-.6-2.2-1-2.2zm-.5 5.7c0 .1-.2.1-.4.1-1 .2-2 .5-3 .7-.2.1-.3.1-.4.1.8-.9 1.4-1.6 1.8-2 .3-.3.5-.6.8-.9.4-.5.7-.7.8-.7s.2.3.3 1 .2 1.2.2 1.5c0 .1 0 .2-.1.2zm14.6-5.7c.1.2.2.4.1.7-.1.9-.4 2.4-.9 4.3-.2.7-.4 1.4-.6 2.1-.2.8-.4 1.6-.7 2.1-.1.3-.3.5-.5.8-.3.2-.5.4-.8.4-.2 0-.3-.1-.5-.3-.8-.9-1.5-2-2.1-3.3-.3-.7-.8-2-1.4-3.7 0 .1-.1.3-.2.5-.1.1-.4.7-1 1.9-.4.7-.7 1.4-.9 1.9s-.3 1-.3 1.4c0 .2 0 .4.1.5.1.3.1.5.1.6s0 .2-.1.3c-.1.2-.2.4-.3.5-.2.2-.4.3-.5.3-.2 0-.5-.1-.7-.4-.2-.2-.3-.5-.4-.7 0-.1 0-.3 0-.5 0-.6.2-1.4.5-2.3.4-1.1 1.1-2.5 2-4.2.2-.4.5-.9.7-1.3.3-.5.6-1 .8-1.3.3-.5.7-.7 1.1-.7.3 0 .5.2.6.6.1.6.2 1.2.3 1.7.1.7.3 1.2.4 1.7.5 1.5 1.1 2.6 1.6 3.3.2-.6.4-1.3.6-2.1.2-.7.3-1.3.5-2 .2-.8.4-1.5.6-2 .2-.6.6-.9 1-.9.6-.2.8-.1.9.1zm11.6.6c-.1.3-.5.7-1.1 1.3-.4.4-.9.8-1.3 1.2-.8.9-1.8 2-2.8 3.4-1.5 2.2-2.4 3.3-2.5 3.5-.3.3-.5.5-.8.5-.2 0-.4-.1-.5-.2-.1-.2-.2-.3-.2-.6 0-.1 0-.3.1-.4.1-.2.3-.5.6-.9s.5-.7.5-.9c0-.1 0-.1 0-.2 0-.2 0-.4-.1-.6-.5-1.2-.8-1.9-1-2.3-.5-1.2-.7-2.1-.7-2.7 0-.2 0-.4.1-.5.1-.2.2-.4.4-.6s.3-.2.5-.2.4.1.5.3c.1.1.4.9.9 2.5.5 1.4.8 2.1 1 2.1.1 0 .2-.2.5-.6.2-.2.4-.5.6-.7.7-.8 1.4-1.6 2.2-2.3 1-.9 1.8-1.5 2.5-1.9.2-.1.3-.1.4-.1.3 0 .4.2.5.6-.2 0-.2.1-.3.3zm7.9.7c-.2.1-.6.1-1.2.2-.5.1-.9.1-1 .2-.3.1-.4.3-.6.6 0 0-.1.3-.2.7-.1.5-.5 1.6-1.1 3.3-.1.4-.3.9-.5 1.6s-.4 1.2-.5 1.6c-.2.6-.6.9-1 .9s-.7-.3-.7-.9.2-1.6.7-2.9c.1-.3.2-.7.4-1.2s.4-.9.4-1.2c.2-.7.4-1.2.4-1.6 0-.2 0-.3 0-.4s-.2-.1-.3-.1c-.2 0-.6 0-1 .1-.5 0-.8.1-1 .1-.6 0-1-.2-1-.6 0-.1 0-.3.1-.5.1-.3.4-.5.8-.6.5-.1 1.1-.2 1.8-.3.9-.1 1.5-.1 1.8-.2 1.9-.3 3.2-.5 3.7-.5.2 0 .3.1.5.2.1.1.2.3.2.5 0 .1 0 .2-.1.3.1.3-.2.5-.6.7zm11.8-.9c-.2 1.1-.6 2.4-1.3 4.1-.1.1-.2.3-.3.6 0 .1 0 .1-.1.3 0 .1 0 .2-.1.3 0 .1-.1.2-.2.3-.3.9-.8 2.1-1.5 3.9-.3.6-.6.9-1.1.9-.4 0-.6-.2-.6-.7 0-.3.1-.8.3-1.4.2-.4.3-.8.5-1.3.2-.4.2-.7.2-.7 0-.1-.1-.2-.2-.2-.7 0-1.6 0-2.8.1-1.5.1-2.4.2-2.6.4-.1 0-.1.2-.2.3-.1.2-.2.5-.3.9s-.2.7-.3.9c-.3 1-.8 1.5-1.3 1.5-.4 0-.7-.2-.7-.6 0-.1 0-.2 0-.3.2-1.3.6-2.8 1.2-4.3.5-1.4 1.1-2.8 1.8-4.1.3-.6.7-.9 1.1-.9s.6.2.6.7c0 .3-.1.6-.2 1-.1.3-.3.7-.5 1.2-.3.5-.4.9-.5 1.2-.1.2-.1.3-.1.3h.1c.3 0 .6-.1 1.1-.1.7-.1 1.5-.1 2.4-.1h1 1c.1 0 .2 0 .3-.1 0 0 .1-.2.2-.3.2-.5.5-1.2.8-2.2.4-1.1.6-1.8.8-2.2h.1c.2-.3.5-.4.8-.4.4 0 .6.2.6.7 0-.1 0 .1 0 .3zm2.7 3.6c-.4 1-.8 2-1.3 3-.2.5-.4 1.2-.8 2.1-.3.6-.7.9-1.1.9s-.6-.2-.6-.7c0-.4.2-1.1.5-2 .2-.6.6-1.5 1.1-2.7.3-.9.8-2.2 1.5-3.9.2-.6.6-.9 1.1-.9.4 0 .6.2.6.6v.5c-.2.9-.5 1.9-1 3.1zm11.5-3.6c-.1.9-.4 2.4-.9 4.3-.2.7-.4 1.4-.6 2.1-.2.8-.4 1.6-.6 2.1-.1.3-.3.5-.5.8-.3.2-.5.4-.8.4-.2 0-.3-.1-.5-.3-.8-.9-1.5-2-2.1-3.3-.3-.7-.8-2-1.4-3.7 0 .1-.1.3-.2.5-.1.1-.4.7-1 1.9-.4.7-.7 1.4-.9 1.9s-.3 1-.3 1.4c0 .2 0 .4.1.5.1.3.1.5.1.6s0 .2-.1.3c-.1.2-.2.4-.3.5-.2.2-.4.3-.5.3-.2 0-.5-.1-.7-.4-.2-.2-.3-.5-.4-.7 0-.1 0-.3 0-.5 0-.6.2-1.4.5-2.3.4-1.1 1.1-2.5 2-4.2.2-.4.5-.9.7-1.3.3-.5.6-1 .8-1.3.3-.5.7-.7 1.1-.7.3 0 .5.2.6.6.1.6.2 1.2.3 1.7.1.7.3 1.2.4 1.7.5 1.5 1.1 2.6 1.6 3.3.2-.6.4-1.3.6-2.1.2-.7.3-1.3.5-2 .2-.8.4-1.5.6-2 .2-.6.6-.9 1-.9.3 0 .4.1.6.3.3 0 .4.2.3.5zm2 5.8c-.2.4-.2.8-.2 1.1 0 .9.6 1.4 1.7 1.4.5 0 1-.1 1.6-.2.5-.1 1.2-.4 2.1-.8 1.1-.5 1.8-.9 1.9-1.2 0-.1-.3-.2-.9-.2-1.3 0-2.6.2-4 .7-.2.1-.3.1-.4.1-.2 0-.3-.1-.5-.2-.1-.2-.2-.3-.2-.6 0-.1 0-.2 0-.3.2-.5.9-.9 2.3-1.2 1-.2 1.9-.4 2.6-.4h.9c.9 0 1.5 0 1.8.1.5.1.8.4.8 1.1 0 .3 0 .5-.1.8-.1.2-.2.4-.4.6-.9 1.1-2.2 2-3.7 2.7s-2.8 1-4 1c-1 0-1.8-.2-2.4-.7s-.9-1.2-.9-2.1c0-.6.1-1.2.4-1.9.7-1.9 2-3.5 3.9-5 1.9-1.4 3.7-2.1 5.5-2.1.5 0 .9.1 1.3.2.5.2.8.4.8.8 0 .3-.1.6-.4.8-.2.3-.5.4-.8.4-.1 0-.2 0-.3 0-.6-.1-1-.2-1.3-.2-1.1 0-2.5.6-4.1 1.7-1.6 1.2-2.6 2.3-3 3.6zm15.6 1.2c.1.1.2.3.2.5 0 .1 0 .2-.1.3-.1.3-.4.6-.8.7-.3.1-.9.2-1.8.3-.8.1-1.5.2-1.9.2-.2 0-.4-.1-.5-.2s-.2-.3-.2-.5c0-.1 0-.3.1-.4.1-.4.5-.7.9-.8.5-.2 1.2-.2 2.1-.2h.7.7c.3-.1.5 0 .6.1zm8-.1c.1.1.2.3.2.5 0 .1 0 .2-.1.3-.1.3-.4.6-.8.7-.3.1-.9.2-1.8.3-.8.1-1.5.2-1.9.2-.2 0-.4-.1-.5-.2s-.2-.3-.2-.5c0-.1 0-.3.1-.4.1-.4.5-.7.9-.8.5-.1 1.2-.2 2.1-.2h.7.7c.3-.1.4 0 .6.1zm7.9 0c.1.1.2.3.2.5 0 .1 0 .2-.1.3-.1.3-.4.6-.8.7-.3.1-.9.2-1.8.3-.8.1-1.5.2-1.9.2-.2 0-.4-.1-.5-.2s-.2-.3-.2-.5c0-.1 0-.3.1-.4.1-.4.5-.7.9-.8.5-.2 1.2-.2 2.1-.2h.7.7c.3-.1.5 0 .6.1z" fill="#231f20"/><path d="m95.6 22.9c.1.7.2 1.2.2 1.5v.2.1s-.1 0-.4.1c-1 .2-2 .5-3 .7-.2.1-.3.1-.4.1.8-.9 1.4-1.6 1.8-2 .3-.3.5-.6.8-.9.4-.5.7-.7.8-.7-.1-.1 0 .2.2.9zm-70.6-.5c-.1 0-.3.2-.8.7-.3.3-.5.6-.8.9-.4.4-1 1.1-1.8 2 .1 0 .2 0 .4-.1 1-.3 2-.5 3-.7.2 0 .4-.1.4-.1v-.1s0-.1 0-.2c0-.3-.1-.8-.2-1.5-.1-.6-.2-.9-.2-.9zm174.1-9.6v25c0 4.4-3.5 7.9-7.8 7.9h-20.2c-.2 0-.5.1-.6.4l-1.8 4.4-6.8 16.5c0 .1-.1.1-.1.1l-5.2-3.4c-.3-.2-.7-.3-1.1-.2s-.7.4-.9.8l-.4.9-2.4 5.1-6.3 13.6 3.1-17.9 1.1-6.5 1.1-6.1 5.1 3.5c.3.2.7.3 1 .1.4-.1.6-.5.7-.9l.9-5.4.7-4.2c0-.2 0-.4-.1-.5s-.3-.2-.5-.2h-21.7c-2.7-2.5-5.1-4.5-7.1-5.8-2.6-1.7-5.7-2.6-9-2.6-1.4 0-2.8.2-4.2.5-2.1.5-3.9 1.1-5.7 1.7-2.6.9-4.9 1.7-7.6 1.7s-5-.8-7.6-1.7c-1.8-.6-3.6-1.3-5.7-1.7-1.4-.3-2.8-.5-4.2-.5-3.4 0-6.5.9-9 2.6-2 1.3-4.4 3.3-7.1 5.8h-53.2c-4.3 0-7.8-3.5-7.8-7.9v-25c0-4.4 3.5-7.9 7.8-7.9h174.7c4.3-.2 7.8 3.4 7.9 7.8zm-171.5 13.8c0-1.3-.2-3-.6-5-.3-1.5-.7-2.3-1.2-2.3-.3 0-.6.2-.9.4-.8.7-1.7 1.7-2.9 3.1-1.4 1.7-2.4 2.8-2.8 3.3-.4.4-.7.7-1 1.1-.4.4-.7.8-1 1.1-.1.3-.2.5-.2.7 0 .4.2.5.5.5.2 0 .5-.1.8-.4.3-.2.5-.4.8-.6s1.3-.5 3.1-.9c1.7-.4 2.7-.6 3.2-.6.2 0 .2.2.2.7v.4.4c0 .8.2 1.2.6 1.2.5 0 .9-.3 1.1-.9.3-.4.3-1.2.3-2.2zm6.1-3.6c.2-.2.3-.3.4-.3.9-.6 1.9-1.1 2.9-1.6 1.3-.6 2.2-.8 2.9-.8.1 0 .2 0 .5.1.1.1.2.2.4.2.4 0 .7-.2.8-.7 0-.1.1-.3.1-.4 0-.3-.2-.6-.5-.8s-.6-.2-1-.2c-1 0-2.3.4-4 1.1-2.7 1.1-4.6 2.6-5.9 4.3-.2.3-.3.5-.3.8 0 .5.3.7 1 .7.3 0 .6-.1 1-.1.4-.1.7-.2 1.1-.3 2.1-.5 3.8-.7 5-.8.4 0 .6 0 .6.2-.1.2-.3.4-.7.8-2.1 2-4.2 3-6.1 3-.9 0-1.4-.1-1.4-.4 0-.1 0-.2.1-.3.1-.2.1-.3.2-.3 0-.1 0-.2 0-.2 0-.2-.1-.4-.2-.5s-.3-.2-.4-.2c-.2 0-.5.1-.8.4-.3.2-.5.5-.7.8s-.3.7-.3 1.1c0 .6.3 1.1.9 1.5.5.3 1.2.5 1.9.5 1.4 0 2.7-.4 4-1.1 1-.6 1.9-1.2 2.8-2 1.2-1 1.9-1.8 2.2-2.6.1-.3.2-.6.2-.8 0-.5-.3-.9-.7-1.1s-.9-.3-1.6-.3c-.6 0-1.7.1-3.2.4-.6-.1-1-.1-1.1-.1zm18.6-3.2c0-.4-.2-.6-.6-.6-.3 0-.6.1-.8.4s-.5.6-.7.9c-.3.3-.5.6-.8.8-1.5 1.2-3.1 2.1-4.9 2.7-.2 0-.3 0-.4 0 .1-.3.2-.7.3-1.1s.3-.7.4-1.1c.3-.7.4-1.2.4-1.6 0-.5-.2-.7-.6-.7-.5 0-.8.4-1.1 1.2-.2.6-.3 1-.4 1.3-.1.4-.3.9-.5 1.5l-.5 1.5c-.3.3-.4.7-.4 1-.4 1.2-.7 2.1-.7 2.6 0 .2 0 .4.1.6s.3.2.5.2c.4 0 .8-.5 1.1-1.6.2-.4.3-.7.3-.9.2 0 .8.2 1.8.6.8.3 1.4.6 1.8.8.2.1.4.3.6.4.1.1.3.3.5.5s.3.3.5.3.4-.1.6-.3.3-.4.4-.7c.2-.6-.2-1.2-1.3-1.9-.5-.3-1.3-.7-2.4-1.1.1-.1.3-.1.4-.1.5-.2.9-.4 1.1-.6 2.9-1.5 4.6-3 5.2-4.6.1-.1.1-.2.1-.4zm17.4 4c0-2.4-.2-3.9-.5-4.6-.1-.3-.3-.4-.6-.4s-.7.2-.9.5c-.5.7-1.3 1.8-2.1 3.3-.9 1.6-1.6 2.7-2.1 3.4 0 0 0 0 0-.2.1-1.4.1-2.4.1-3 0-1.3-.1-2.3-.4-2.9-.1-.4-.4-.6-.7-.6-.4 0-.7.2-1 .7-.4.6-.8 1.3-1.3 2.1-.4.7-.8 1.5-1.2 2.2s-.9 1.5-1.3 2.2c-.6 1-1 1.7-1.1 2.2 0 .1-.1.3-.1.4 0 .3.2.5.5.5.2 0 .6-.3 1.2-1 .4-.5.7-.9 1-1.4.5-.8 1.1-1.8 1.7-2.9.2-.4.4-.7.5-.9v.8c0 .4 0 1.1-.1 2.1-.1.9-.1 1.6-.1 2v.8c0 .3.1.4.2.5s.3.2.5.2c.5 0 .9-.2 1.2-.5.1-.1.3-.4.4-.6.2-.3.3-.6.3-.6.8-1.2 1.5-2.2 1.9-2.8.3-.4.5-.9.8-1.3.3-.5.6-.9.9-1.3v.8c0 1.4 0 2.8-.1 4.1v1.6c.1.5.3.8.7.8.3 0 .5-.1.7-.3s.3-.4.4-.7c.6-1.4.7-3.1.6-5.2zm14.2-3.9c0-.3-.1-.5-.3-.6-.1-.1-.3-.1-.7-.2-1.2-.2-2.2-.3-3.2-.3-2.3 0-4 .6-5.1 1.9-.3.4-.6.8-.9 1.4-.2.5-.5 1-.7 1.5-.2.2-.3.4-.3.7-.3.5-.5 1-.7 1.6-.3.8-.4 1.4-.4 1.9 0 .6.2 1.1.7 1.4.4.3 1 .4 1.7.4s1.7-.2 2.9-.5c1.3-.4 2.2-.8 2.9-1.2.4-.3.6-.6.6-1.1 0-.4-.2-.6-.6-.6-.1 0-.2 0-.4.1-2.4.8-4.1 1.1-5.1 1.1-.3 0-.5 0-.6-.1s-.2-.2-.2-.5.1-.6.2-1 .3-.6.5-.7c.3-.1 1.3-.3 2.9-.3 1.8-.1 2.9-.2 3.3-.3s.7-.3.8-.7c.1-.2.1-.4.1-.6 0-.4-.3-.6-.9-.6-1 0-2.4.1-4.2.3-.1 0-.2 0-.5.1-.2 0-.3 0-.5 0h-.2c.1-.4.2-.7.5-1s.6-.6.9-.7c.9-.4 2-.6 3.4-.6 1.1 0 1.9.2 2.3.5.2.1.3.2.4.2.2 0 .4-.1.7-.3.2-.2.4-.4.4-.7.2-.2.3-.3.3-.5zm14 6.2c0-1.3-.2-3-.6-5-.3-1.5-.7-2.3-1.2-2.3-.3 0-.6.2-.9.4-.8.7-1.7 1.7-2.9 3.1-1.4 1.7-2.4 2.8-2.8 3.3-.4.4-.7.7-1 1.1-.4.4-.7.8-1 1.1-.2.2-.2.4-.2.6 0 .4.2.5.5.5.2 0 .5-.1.8-.4.3-.2.5-.4.8-.6s1.3-.5 3-.9 2.7-.6 3.2-.6c.2 0 .2.2.2.7v.4.4c0 .8.2 1.2.6 1.2.5 0 .9-.3 1.1-.9.4-.3.4-1 .4-2.1zm12.6-6.6c0-.3 0-.5-.1-.7s-.3-.3-.6-.3c-.5 0-.8.3-1 .9-.2.5-.4 1.2-.6 2-.2.7-.3 1.3-.5 2-.2.8-.4 1.5-.6 2.1-.5-.7-1.1-1.8-1.6-3.3-.2-.4-.3-1-.4-1.7-.1-.6-.2-1.2-.3-1.7-.1-.4-.3-.6-.6-.6-.4 0-.8.2-1.1.7-.2.3-.5.7-.8 1.3-.2.4-.5.9-.7 1.3-1 1.7-1.6 3.1-2 4.2-.3.9-.5 1.7-.5 2.3v.5c.1.3.2.5.4.7.2.3.5.4.7.4s.4-.1.5-.3c.2-.1.3-.3.3-.5 0-.1.1-.2.1-.3s-.1-.3-.1-.6c-.1-.1-.1-.3-.1-.5 0-.4.1-.8.3-1.4.2-.5.5-1.1.9-1.9.6-1.1.9-1.7 1-1.9s.2-.3.2-.5c.6 1.8 1.1 3 1.4 3.7.6 1.3 1.3 2.4 2.1 3.3.2.2.3.3.5.3.3 0 .5-.1.8-.4.2-.2.4-.5.5-.8.2-.6.4-1.3.7-2.1.2-.7.4-1.4.6-2.1.2-1.8.5-3.2.6-4.1zm10.3 1.2c.6-.6 1-1 1.1-1.3.1-.1.1-.3.1-.4 0-.4-.2-.6-.5-.6-.1 0-.2 0-.4.1-.7.3-1.5.9-2.5 1.9-.8.7-1.5 1.5-2.2 2.3-.2.3-.4.5-.6.7-.3.4-.5.6-.5.6-.1 0-.5-.7-1-2.1-.6-1.6-.9-2.4-.9-2.5-.1-.2-.3-.3-.5-.3s-.4.1-.5.2c-.2.2-.3.4-.4.6 0 .1-.1.3-.1.5 0 .6.2 1.5.7 2.7.1.4.5 1.2 1 2.3.1.3.2.5.1.6v.2c-.1.2-.2.5-.5.9s-.5.7-.6.9c0 .1-.1.3-.1.4 0 .2.1.4.2.6s.3.2.5.2c.3 0 .5-.2.8-.5.1-.2 1-1.4 2.5-3.5 1-1.4 1.9-2.5 2.8-3.4.7-.3 1.1-.7 1.5-1.1zm7.8-.4c.5-.1.9-.1 1.2-.2.4-.1.7-.4.8-.7 0-.1.1-.2.1-.3 0-.2-.1-.3-.2-.5-.1-.1-.3-.2-.5-.2-.6 0-1.8.2-3.7.5-.3 0-.9.1-1.8.2-.8.1-1.4.2-1.8.3s-.7.3-.8.6c-.1.2-.1.4-.1.5 0 .4.3.6 1 .6.2 0 .6 0 1-.1.5 0 .8-.1 1-.1s.3 0 .3.1c.1.1.1.2 0 .4 0 .4-.2.9-.4 1.6-.1.3-.2.6-.4 1.2-.2.5-.3.9-.4 1.2-.5 1.3-.7 2.3-.7 2.9s.2.9.7.9.8-.3 1-.9c.1-.4.3-.9.5-1.6s.4-1.2.5-1.6c.6-1.7 1-2.8 1.1-3.3.1-.4.2-.7.2-.7.1-.3.3-.6.6-.6 0-.1.3-.2.8-.2zm11.7 3c.7-1.7 1.2-3.1 1.3-4.1 0-.2 0-.3 0-.5 0-.5-.2-.7-.6-.7-.3 0-.6.1-.8.4h-.1c-.1.4-.4 1.1-.8 2.2-.3.9-.6 1.6-.8 2.2-.1.2-.1.3-.2.3-.1.1-.2.1-.3.1-.2 0-.5 0-1 0-.4 0-.8 0-1 0-.9 0-1.7 0-2.4.1-.5.1-.9.1-1.1.1 0 0 0 0-.1 0s0-.1.1-.3c.1-.3.3-.6.5-1.2.3-.5.4-.9.5-1.2.1-.4.2-.8.2-1 0-.5-.2-.7-.6-.7s-.8.3-1.1.9c-.7 1.3-1.3 2.7-1.8 4.1-.6 1.5-.9 3-1.2 4.3v.3c0 .4.2.6.7.6s1-.5 1.3-1.5c.1-.2.2-.5.3-.9s.2-.7.3-.9.1-.3.2-.3c.2-.1 1.1-.2 2.6-.4 1.2-.1 2.1-.1 2.8-.1.1 0 .2.1.2.2s-.1.3-.2.7c-.2.4-.3.8-.5 1.3-.2.6-.3 1-.3 1.4 0 .5.2.7.6.7.5 0 .8-.3 1.1-.9.7-1.7 1.2-3 1.5-3.9.1-.1.1-.2.2-.3 0-.1 0-.1.1-.3 0-.1 0-.2.1-.3s.2-.3.3-.4zm2.8 2.6c.4-1 .9-2 1.3-3 .5-1.2.8-2.2.9-3.1 0-.2 0-.4 0-.5 0-.4-.2-.6-.6-.6-.5 0-.9.3-1.1.9-.7 1.7-1.2 3.1-1.5 3.9-.5 1.2-.9 2.1-1.1 2.7-.3.9-.5 1.6-.5 2 0 .5.2.7.6.7.5 0 .8-.3 1.1-.9.4-1 .7-1.7.9-2.1zm11.8-2.4c.5-2 .8-3.4.9-4.3 0-.3 0-.5-.1-.7s-.3-.3-.6-.3c-.5 0-.8.3-1 .9-.2.5-.4 1.2-.6 2-.2.7-.3 1.3-.5 2-.2.8-.4 1.5-.6 2.1-.5-.7-1.1-1.8-1.6-3.3-.2-.4-.3-1-.4-1.7-.1-.6-.2-1.2-.3-1.7-.1-.4-.3-.6-.6-.6-.4 0-.8.2-1.1.7-.2.3-.5.7-.8 1.3-.2.4-.5.9-.7 1.3-1 1.7-1.6 3.1-2 4.2-.3.9-.5 1.7-.5 2.3v.5c.1.3.2.5.4.7.2.3.5.4.7.4s.4-.1.5-.3c.2-.1.3-.3.3-.5 0-.1.1-.2.1-.3s-.1-.3-.1-.6c-.1-.1-.1-.3-.1-.5 0-.4.1-.8.3-1.4.2-.5.5-1.1.9-1.9.6-1.1.9-1.7 1-1.9s.2-.3.2-.5c.6 1.8 1.1 3 1.4 3.7.6 1.3 1.3 2.4 2.1 3.3.2.2.3.3.5.3.3 0 .5-.1.8-.4.2-.2.4-.5.5-.8.2-.6.4-1.3.6-2.1 0-.5.2-1.2.4-1.9zm4.1 6c1.2 0 2.5-.3 4-1 1.6-.7 2.8-1.6 3.7-2.7.2-.2.3-.4.4-.6s.1-.5.1-.8c0-.6-.3-1-.8-1.1-.4 0-1-.1-1.8-.1h-.9c-.7 0-1.6.1-2.6.4-1.4.3-2.1.7-2.3 1.2v.3c0 .2.1.4.2.6s.3.2.5.2c.1 0 .2 0 .4-.1 1.4-.4 2.7-.7 4-.7.7 0 1 0 .9.2-.1.3-.7.7-1.9 1.2-.9.4-1.6.6-2.1.8-.6.2-1.1.2-1.6.2-1.1 0-1.7-.5-1.7-1.4 0-.3.1-.7.2-1.1.4-1.2 1.4-2.4 3-3.5 1.6-1.2 2.9-1.7 4.1-1.7.3 0 .8.1 1.3.2h.3c.3 0 .5-.1.8-.4.2-.3.4-.5.4-.8 0-.4-.3-.6-.8-.8-.4-.1-.8-.2-1.3-.2-1.8 0-3.6.7-5.5 2.1-2 1.4-3.3 3.1-3.9 5-.3.7-.4 1.3-.4 1.9 0 .9.3 1.6.9 2.1.6.3 1.4.6 2.4.6zm14.6-2.8c0-.2-.1-.4-.2-.5s-.3-.2-.5-.2c-.1 0-.4 0-.7 0s-.5 0-.7 0c-.9 0-1.6.1-2.1.2s-.8.4-.9.8c0 .1-.1.3-.1.4 0 .2.1.4.2.5s.3.2.5.2c.4 0 1-.1 1.9-.2s1.5-.2 1.8-.3c.4-.2.6-.4.8-.7 0 0 0-.1 0-.2zm7.9-.1c0-.2-.1-.4-.2-.5s-.3-.2-.5-.2c-.1 0-.4 0-.7 0s-.5 0-.7 0c-.9 0-1.6.1-2.1.2s-.8.4-.9.8c0 .1-.1.3-.1.4 0 .2.1.4.2.5s.3.2.5.2c.4 0 1-.1 1.9-.2s1.5-.2 1.8-.3c.4-.2.6-.4.8-.7 0 0 0-.1 0-.2zm8 0c0-.2-.1-.4-.2-.5s-.3-.2-.5-.2c-.1 0-.4 0-.7 0s-.5 0-.7 0c-.9 0-1.6.1-2.1.2s-.8.4-.9.8c0 .1-.1.3-.1.4 0 .2.1.4.2.5s.3.2.5.2c.4 0 1-.1 1.9-.2s1.5-.2 1.8-.3c.4-.2.6-.4.8-.7 0 0 0-.1 0-.2zm-49.7 60.5c-.9-.7-1.8-1.4-2.7-2.1s-1.8-1.3-2.7-1.9c-1.2-.8-2.3-1.6-3.3-2.3v.1.5.6c.1.7.1 1.3.2 1.9.4 3.1 1.8 4.3 5.2 4.3 1.1 0 2.3 0 3.4-.1h.2c0-.2 0-.5 0-.7v-.1c-.1-.1-.2-.1-.3-.2zm-62.1 1.6c.5 1.2 1.4 2 2.7 2.2 5.5 1.1 14.3.8 17.7.2 2.1-.3 4.3-1.2 4.3-5v-6.8-6.2c-.1 0-.1 0-.2 0-.4 0-.8 0-1.3-.1-1-.1-2.1-.1-3.2-.2s-2.2-.1-3.3-.1c-1.6 0-3.2.1-4.6.4-4.7 1-7.7 3.3-12.7 6.6 0 0-.1 0-.1.1 0 .6-.1 1.2-.1 1.8v.1c.1 2.2.2 4.2.4 5.8.1.4.3.8.4 1.2zm-2.5-4.7c.1-.7.2-1.3.2-2.1 0-.1 0-.3 0-.4v-.6c-.3.2-.7.4-1 .6-.4.3-.8.5-1.3.8-.6.4-1.2.8-1.8 1.3-.6.4-1.3.9-1.9 1.4-1.3 1-2.7 2.1-4 3.2h1.3c1.1.1 2.3.1 3.4.1 3.3 0 4.7-1.2 5.1-4.3zm33.2 7c2.8.4 9.3.8 14.7.2 1.1-.1 2.1-.2 3-.4 1.6-.3 2.7-1.6 3-3.5.2-1.5.3-3.6.4-5.8 0-.5-.1-1.1-.1-1.7 0 0-.1 0-.1-.1 0 0-.1 0-.1-.1-4.9-3.2-7.9-5.5-12.6-6.5-1.4-.3-2.9-.4-4.6-.4-1.1 0-2.2.1-3.3.1s-2.2.1-3.2.2c-.5 0-1 0-1.5.1v6.2 6.7c.1 3.8 2.3 4.7 4.4 5z" fill="#fff"/></svg>