<svg viewBox="0 0 517.92 244.06" xmlns="http://www.w3.org/2000/svg"><g fill="#fff"><path d="m509.32 190a8.71 8.71 0 0 1 1.75 7.79 14.82 14.82 0 0 1 -13.85 11.09h1.12a10.88 10.88 0 0 1 8.9 3.93 10.31 10.31 0 0 1 1.44 2.26 11 11 0 0 1 .6 7.13 16.24 16.24 0 0 1 -6 9.46 16.62 16.62 0 0 1 -10.57 3.9h-34.86l2.42-11.43h5.49l5.53-26h-5.53l2.46-11.39h33.78a8.9 8.9 0 0 1 7.32 3.26zm-12.43 11.43a3.65 3.65 0 0 0 -.29-2.67 2.72 2.72 0 0 0 -2.45-1.15h-8.61l-1.54 7.28h8.61a4.15 4.15 0 0 0 2.93-1.19 4.65 4.65 0 0 0 1.35-2.26zm-1.19 19a3.57 3.57 0 0 0 -.74-3 4 4 0 0 0 -3.19-1.15h-10.2l-2 9.35h10.65a5.17 5.17 0 0 0 3.78-1.73 6.83 6.83 0 0 0 1.7-3.46z"/><path d="m450.39 193.54q6.06 7.34 3.83 17.7t-11.36 17.7a30.84 30.84 0 0 1 -19.86 7.35q-10.73 0-16.69-7.35t-3.86-17.7q2.22-10.35 11.39-17.7a30.77 30.77 0 0 1 19.78-7.31q10.77 0 16.77 7.31zm-11.83 17.7q1.33-6.24-1.08-10a7.07 7.07 0 0 0 -6.31-3.3 11.11 11.11 0 0 0 -7.68 3.3 18.5 18.5 0 0 0 -5.31 10q-1.33 6.27 1.08 9.94a7.08 7.08 0 0 0 6.27 3.34 11.14 11.14 0 0 0 7.72-3.34 18.3 18.3 0 0 0 5.31-9.94z"/><path d="m399.63 186.78-2.41 11.47h-4.83l-4.39 20.48a21.82 21.82 0 0 1 -2.71 7 19.07 19.07 0 0 1 -4.78 5.38 21.8 21.8 0 0 1 -6.94 3.45 30 30 0 0 1 -8.91 1.49 20.36 20.36 0 0 1 -7-1.19q-7.8-2.82-8.72-11.39l11.72-3a3 3 0 0 0 1.45 2.93 7.21 7.21 0 0 0 4.08 1.37h.56a8 8 0 0 0 4-1 5.57 5.57 0 0 0 2.79-3.52l4.67-22h-5.21l2.42-11.47z"/><path d="m319.14 193.54q6 7.34 3.82 17.7t-11.35 17.7a30.9 30.9 0 0 1 -19.82 7.35q-10.73 0-16.7-7.35t-3.87-17.7q2.23-10.35 11.39-17.7a30.77 30.77 0 0 1 19.78-7.31q10.74 0 16.75 7.31zm-11.84 17.7q1.33-6.24-1.07-10a7.07 7.07 0 0 0 -6.31-3.3 11.15 11.15 0 0 0 -7.69 3.3 18.52 18.52 0 0 0 -5.3 10q-1.33 6.27 1.07 9.94a7.09 7.09 0 0 0 6.28 3.34 11.09 11.09 0 0 0 7.71-3.34 18.3 18.3 0 0 0 5.31-9.94z"/><path d="m268.34 186.78-2.42 11.47h-5.04l-5.53 25.86h5.08l-2.41 11.43h-24.23l2.41-11.43h5.05l5.53-25.86h-5.09l2.41-11.47z"/><path d="m225.92 193.94q6 7.13 3.86 17.22t-11.17 17.22a30.82 30.82 0 0 1 -19.61 7.16h-25.78l2.45-11.46h5.55l5.5-25.83h-5.5l2.42-11.47h25.71q10.65.05 16.57 7.16zm-9.35 17.22a11.4 11.4 0 0 0 -1.71-9.16 8.93 8.93 0 0 0 -7.83-4.31h-6.12l-5.75 26.94h6.12q5 0 9.69-4.3a17.34 17.34 0 0 0 5.6-9.17z"/><path d="m174.45 186.78-2.45 11.54h-5.78l-3.71 17.48a25 25 0 0 1 -9.29 14.51 25.54 25.54 0 0 1 -16.29 6.05q-8.76 0-13.7-6.05t-3.15-14.51l3.71-17.48h-5.79l1.65-7.79.8-3.75h25.19l-2.46 11.54h-5.75l-4 19q-.41 3.6 1.45 5.53a5.42 5.42 0 0 0 4.38 1.85h.11a8.53 8.53 0 0 0 5.31-1.85 10.66 10.66 0 0 0 3.78-5.53l4-19h-5.79l2.45-11.54z"/><path d="m111.29 186.78-3.56 16.85h-9.54l1.3-6.12h-6.57l-5.68 26.64h5.83l-2.41 11.39h-25.5l2.41-11.39h5.57l2.64-12.39 3.04-14.25h-6.57l-1.3 6.12h-9.54l3.57-16.85z"/><path d="m52.69 186.78-3 14.4h-10.21a4 4 0 0 0 -2-3.9 16.07 16.07 0 0 0 -5.6-.66q-4.23 0-6 1.11a3.29 3.29 0 0 0 -1.81 2.08v.19a2.45 2.45 0 0 0 1.22 2.64q1.41 1 8 1.74 7.45 1 10.76 2.86a9.46 9.46 0 0 1 4.16 4.41 11.34 11.34 0 0 1 .92 3.75 13 13 0 0 1 -.26 4.27 19.77 19.77 0 0 1 -2.7 6.38 22.46 22.46 0 0 1 -3.31 4.09 18.87 18.87 0 0 1 -5.53 3.86q-4.94 2.34-13.43 2.34-6.72 0-10.13-2.82a11.38 11.38 0 0 1 -2-1.86l-2 4h-6.94l3-14.36h12.39a6 6 0 0 0 2.41 4.7 9.3 9.3 0 0 0 4.94 1.19h.43a13.55 13.55 0 0 0 6.06-1.19 5.88 5.88 0 0 0 3.2-4 3.22 3.22 0 0 0 -1.26-3.6 8.69 8.69 0 0 0 -2.22-1c-1.59-.3-3.24-.64-5-1-3.09-.59-5.51-1.14-7.27-1.63a25 25 0 0 1 -4-1.49 8.7 8.7 0 0 1 -4.75-6.38 13.94 13.94 0 0 1 .11-5.27 21.45 21.45 0 0 1 1.13-3.49 20.64 20.64 0 0 1 2.47-4.27 19.15 19.15 0 0 1 3.4-3.45 17 17 0 0 1 4.38-2.53q4.31-1.68 11.84-1.67 5.67 0 8.87 1.93a11.74 11.74 0 0 1 1.63 1.07l1.22-2.45z"/><path d="m465.11 94.78-2.93 13.81h-8.09l.63-2.93h-11.43l-1.56 7.27h13.95l-2.19 10.28h-13.95l-2.04 9.72h11.43l.67-3.15h8.09l-2.93 13.76h-39.12l2.45-11.46h5.49l5.5-25.83h-5.53l2.41-11.47z"/><path d="m408.74 98.05a8.76 8.76 0 0 1 1.71 7.79 13.36 13.36 0 0 1 -5.05 7.79 13.5 13.5 0 0 1 -8.72 3.27q3.85 0 6.86 5.38 1.53 2.75.15 9.83h5.16l-2.41 11.43h-24.22l2.41-11.43h3.93l.44-2.11c.94-4.5.38-6.75-1.7-6.75h-10.55l-1.89 8.9h4.64l-2.41 11.43h-24.24l1.63-7.71.79-3.72h5.49l5.53-25.9h-5.5l2.43-11.43h34.78q8.08-.04 10.74 3.23zm-15 11a2.82 2.82 0 0 0 -.37-2.26 2.67 2.67 0 0 0 -2.42-1.15h-10.45l-1.56 7.25h10.47a4.28 4.28 0 0 0 3.11-1.49 5 5 0 0 0 1.23-2.33z"/><path d="m346.14 132.08-2.45 11.46h-22.56l2.44-11.46h4.2l-.56-5.53h-13.66l-3.22 5.53h4.11l-2.44 11.46h-22.68l2.45-11.46h4.83l4.17-6.07 13.6-19.76h-4.15l2.41-11.47h22.56l6.68 37.3zm-27.72-14.19h7.58a107.54 107.54 0 0 1 -1.5-10.89q-1.63 3.22-6.08 10.89z"/><path d="m261.75 126.59-3.6 16.95h-42.16l2.42-11.43h5.53l5.52-25.9h-5.49l2.41-11.43h24.24l-2.42 11.43h-4.63l-5.57 26.09h12.06l1.22-5.71z"/><path d="m210.43 126.59-3.6 16.95h-42.16l2.11-10.01.3-1.42h5.53l5.53-25.9h-5.49l1.62-7.68.79-3.75h24.23l-2.41 11.43h-4.64l-5.56 26.09h12.06l1.22-5.71z"/><path d="m165.86 94.78-2.93 13.81h-8.09l.63-2.93h-11.43l-1.56 7.27h13.95l-2.19 10.28h-13.95l-2.04 9.72h11.43l.67-3.15h8.09l-2.93 13.76h-39.12l2.45-11.46h5.49l5.5-25.83h-5.53l1.62-7.73.79-3.74z"/><path d="m117.54 94.78-2.41 11.43h-4.82l-5.53 25.9h4.78l-2.41 11.43h-24.23l2.41-11.43h5.38l2.01-9.27h-14.25l-2.01 9.27h4.64l-2.41 11.43h-24.23l2.41-11.43h5.49l3.83-17.95 1.7-7.95h-5.49l2.41-11.43h24.23l-2.41 11.43h-4.64l-1.26 5.98h14.25l1.26-5.98h-5.34l2.41-11.43z"/><path d="m455.27 2.78-2.93 13.81h-8.09l.63-2.93h-11.43l-1.55 7.27h13.95l-2.19 10.28h-13.95l-2.04 9.72h11.43l.66-3.15h8.09l-2.93 13.76h-39.11l2.45-11.46h5.49l5.49-25.83h-5.53l1.62-7.73.79-3.74z"/><path d="m406.96 2.78-2.41 11.43h-4.83l-5.53 25.9h4.79l-2.41 11.43h-24.23l2.41-11.43h5.38l2-9.27h-14.25l-2 9.27h4.64l-2.41 11.43h-24.24l2.41-11.43h5.5l5.53-25.9h-5.5l1.63-7.68.79-3.75h24.23l-2.41 11.43h-4.64l-1.26 5.98h14.25l1.26-5.98h-5.35l2.42-11.43z"/><path d="m345.06 2.78-3.56 16.85h-9.54l1.3-6.12h-6.57l-5.68 26.64h5.83l-2.41 11.39h-25.5l2.42-11.39h5.56l2.64-12.39 3.04-14.25h-6.57l-1.3 6.12h-9.53l3.56-16.85z"/><path d="m258.22 9.54q6 7.34 3.82 17.7t-11.36 17.7a30.82 30.82 0 0 1 -19.81 7.35q-10.73 0-16.7-7.35t-3.86-17.7q2.22-10.35 11.39-17.7a30.77 30.77 0 0 1 19.78-7.31q10.74 0 16.74 7.31zm-11.84 17.7q1.34-6.24-1.08-9.95a7.05 7.05 0 0 0 -6.3-3.29 11.17 11.17 0 0 0 -7.68 3.3 18.51 18.51 0 0 0 -5.3 10q-1.33 6.27 1.07 9.94a7.08 7.08 0 0 0 6.27 3.34 11.12 11.12 0 0 0 7.72-3.34 18.29 18.29 0 0 0 5.28-9.94z"/><path d="m207.42 2.78-2.41 11.43h-4.82l-5.53 25.9h4.78l-2.41 11.43h-24.23l2.41-11.43h5.38l2.01-9.27h-14.25l-2.01 9.27h4.64l-2.41 11.43h-24.23l2.41-11.43h5.49l5.53-25.9h-5.49l1.62-7.68.79-3.75h24.23l-2.41 11.43h-4.64l-1.26 5.98h14.25l1.26-5.98h-5.34l2.41-11.43z"/><path d="m115.76 2.78v.52q0 4.2.34 15.81a86.49 86.49 0 0 1 -.1 16.25 104.84 104.84 0 0 1 6.75-16.25c.77-1.53 1.5-3.18 2.19-4.93h-2.82l1.68-8.18.68-3.19h21l-2.41 11.4h-5.45l-15 26h4.38l-2.41 11.39h-22.78l2.41-11.42h3.12l-1.75-16.33-8.72 16.3h3l-2.41 11.39h-22.41l2.41-11.39h4.16l-4-26h-5.79l2.41-11.4h21.67l-2.41 11.4h-3.15c0 1 0 2.66.11 4.93a81.71 81.71 0 0 1 -.15 16.25 101.78 101.78 0 0 1 6.79-16.25q5.16-11.61 7-15.81l.22-.52z"/></g><path d="m496.6 198.77a3.65 3.65 0 0 1 .29 2.67 4.69 4.69 0 0 1 -1.37 2.3 4.15 4.15 0 0 1 -2.93 1.19h-8.59l1.56-7.31h8.61a2.72 2.72 0 0 1 2.43 1.15z"/><path d="m495 217.47a3.57 3.57 0 0 1 .74 3 6.79 6.79 0 0 1 -1.74 3.53 5.21 5.21 0 0 1 -3.82 1.74h-10.62l2-9.35h10.2a4 4 0 0 1 3.24 1.08z"/><path d="m502 186.75h-33.78l-2.45 11.39h5.53l-5.53 26h-5.49l-1.81-.59c.25-.53.48-1.06.69-1.6h4.9l3.45-16.29-4.15-5.31h-.23l3.34-15.8h36a10.73 10.73 0 0 1 8.76 3.86 8.45 8.45 0 0 1 .85 1.29l3.64 4.57a10.55 10.55 0 0 1 1.85 9.13 15.9 15.9 0 0 1 -6 9.31 4.35 4.35 0 0 1 -.41.34 3.29 3.29 0 0 0 -.41.33l.09.11-2 1.59a10.31 10.31 0 0 0 -1.44-2.26 10.88 10.88 0 0 0 -8.9-3.93h-1.28a14.82 14.82 0 0 0 13.78-11.1 8.71 8.71 0 0 0 -1.75-7.79 8.89 8.89 0 0 0 -7.25-3.25z"/><path d="m457.85 235.58h34.85a16.62 16.62 0 0 0 10.57-3.9 16.24 16.24 0 0 0 6.05-9.46 11 11 0 0 0 -.6-7.13l2-1.59 2.84 3.64a12.19 12.19 0 0 1 2.19 10.65 18.9 18.9 0 0 1 -7 11 19.3 19.3 0 0 1 -12.17 4.49h-36.87l-4.31-5.46h-.18l2.85-13.33c.15-.29.29-.59.43-.88l1.81.59z"/><path d="m458.56 222h.59c-.21.54-.44 1.07-.69 1.6-.14.29-.28.59-.43.88z"/><path d="m436.33 211.24a15.69 15.69 0 0 0 .3-5.38l-.76-.13a4.87 4.87 0 0 0 -.76-.06 7.47 7.47 0 0 0 -3.09.67 10.48 10.48 0 0 0 -2.85 1.89 16.15 16.15 0 0 0 -4.49 8.57 23.41 23.41 0 0 0 -.41 2.77 9.56 9.56 0 0 0 .07 2.39 4.37 4.37 0 0 0 1.67.34 8.54 8.54 0 0 0 5.9-2.56 15.71 15.71 0 0 0 4.42-8.5zm-10.8 13.28a7.08 7.08 0 0 1 -6.27-3.34q-2.42-3.68-1.08-9.94a18.5 18.5 0 0 1 5.31-10 11.11 11.11 0 0 1 7.68-3.3 7.07 7.07 0 0 1 6.31 3.3q2.41 3.72 1.08 10a18.3 18.3 0 0 1 -5.31 9.94 11.14 11.14 0 0 1 -7.72 3.34z"/><path d="m429.08 106.25-5.5 25.83h-5.49l-2.45 11.46h39.12l2.93-13.76h-8.09l-.67 3.15h-11.43l2-9.72h13.95l2.23-10.32h-14l1.56-7.27h11.48l-.63 2.93h8.13l2.93-13.81h-39.15l-2.41 11.47zm-4.86-13.69h43.6v.22l4.31 5.45-3.86 18h-5.68l.11.11-2.38 11.17h.12l-.08.22 4.31 5.46-3.83 18h-43.38l-3.91-5 2.28-10.69-.61-.61 1.06-5h5.49l3.45-16.11-4.16-5.3h-.22z"/><path d="m414.38.56h43.6l-.03.22 4.3 5.45-3.86 18.04h-5.68l.12.11-2.38 11.17h.11l-.07.22 4.3 5.46-3.82 18h-43.34l-3.94-5 .64-3.01 1.48.32h39.11l2.93-13.76h-8.09l-.66 3.15h-11.43l2.04-9.72h13.95l2.19-10.28h-13.95l1.55-7.27h11.43l-.63 2.93h8.09l2.93-13.81h-39.15l-.79 3.74-1.39-.29-.6-.76z"/><path d="m415.25 134.84.58.73-2.28 10.69-.39-.49h-.23z"/><path d="m413.34 5.47.6.76-2.3 10.78-.41-.53h-.23z"/><path d="m413.75 40.08h-5.49l-2.45 11.46-1.48-.32 1.63-7.65-.55-.69 1.07-5.03h5.49l3.41-16.07-3.74-4.77 2.3-10.78 1.39.29-1.62 7.73h5.53z"/><path d="m405.41 42.88.55.69-1.63 7.65-.64 3.01-.37-.46h-.22z"/><path d="m404.27 201.23-1 4.7h-1.38a29.19 29.19 0 0 1 2.38-4.7z"/><path d="m433.66 186.23a30.77 30.77 0 0 0 -19.78 7.31q-9.17 7.34-11.39 17.7t3.86 17.7q6 7.35 16.69 7.35a30.84 30.84 0 0 0 19.82-7.35q9.17-7.31 11.36-17.7t-3.83-17.7q-6-7.32-16.73-7.31zm-33.4 25a30.74 30.74 0 0 1 1.63-5.31h1.38l1-4.7a36.4 36.4 0 0 1 8.38-9.29 33.52 33.52 0 0 1 21.49-7.93q11.66 0 18.15 7.94c.29.37.57.74.83 1.11l.8 1.15 3 3.83q6.12 7.86 3.78 18.77a31 31 0 0 1 -1.56 5.16h-.59l-.53 2.48a34.38 34.38 0 0 1 -9.68 11.56q-9.84 7.94-21.41 7.94t-18.07-7.94l-3.34-4.2q-.27-.28-.54-.63c-.19-.22-.37-.44-.54-.67q-6.58-7.81-4.22-19.24z"/><path d="m393.38 106.81a2.82 2.82 0 0 1 .37 2.26 4.88 4.88 0 0 1 -1.23 2.37 4.28 4.28 0 0 1 -3.11 1.49h-10.47l1.56-7.27h10.5a2.67 2.67 0 0 1 2.38 1.15z"/><path d="m398 94.78h-34.78l-2.42 11.43h5.5l-5.53 25.9h-5.49l-.79 3.72-1.4-.3-.6-.76 1-4.88h5.51l3.45-16.18-4.15-5.27h-.22l3.37-15.88h37q9.06 0 12.14 3.89a5.83 5.83 0 0 1 .57.74l.5.78 3.23 4.12.3.34a10.44 10.44 0 0 1 1.78 9 16 16 0 0 1 -6 9.31 21.6 21.6 0 0 1 -3.53 2.3l.82 1a25 25 0 0 1 1.59 2.49 8.31 8.31 0 0 1 .93 3.34l-1.93 2.22h-5.16q1.38-7.08-.15-9.83-3-5.39-6.86-5.38a13.5 13.5 0 0 0 8.72-3.27 13.36 13.36 0 0 0 5.05-7.79 8.76 8.76 0 0 0 -1.73-7.82q-2.66-3.22-10.72-3.22z"/><path d="m352.85 143.54h24.24l2.41-11.43h-4.64l1.89-8.9h10.58c2.08 0 2.64 2.25 1.7 6.75l-.48 2.15h-3.93l-2.4 11.43h24.23l2.41-11.43 1.93-2.22h.78v.22l3.65 4.78-2.32 10.93h.23l.39.49-1.06 5h-28.46l-.7-.89-.19.89h-28.44l-3.88-4.93 2.29-10.77 1.4.3z"/><path d="m352.48.56h30.25v2.22l-2.42 11.43h5.35l-1.26 5.98h-14.25l1.26-5.98h4.64l2.41-11.43h-24.23l-.79 3.75-1.4-.3-.6-.76z"/><path d="m352.48 134.77.6.76-2.29 10.77-.42-.53h-.23z"/><path d="m351.44 5.47.6.76-2.29 10.75-.42-.54h-.22z"/><path d="m370.79 223.78a8 8 0 0 1 -4 1h-.57a7.21 7.21 0 0 1 -4.08-1.37 3 3 0 0 1 -1.45-2.93l-11.72 3q.93 8.57 8.72 11.39a20.36 20.36 0 0 0 7 1.19 30 30 0 0 0 8.91-1.49 21.8 21.8 0 0 0 6.94-3.45 19.07 19.07 0 0 0 4.78-5.38 21.82 21.82 0 0 0 2.71-7l4.38-20.48h4.81l2.41-11.47h-24.23l-2.4 11.47h5.24l-4.67 22a5.56 5.56 0 0 1 -2.78 3.52zm-24.34-1.89 17-4.27-.08.26 3.68 4.68h.17a6.13 6.13 0 0 0 1.54-.19 5.89 5.89 0 0 0 1.29-.48 2.84 2.84 0 0 0 1.33-1.67l3.12-14.74-4-5h-.23l3.38-15.92h28.69v.22l4.31 5.45-2.34 11a29.19 29.19 0 0 0 -2.38 4.7h-3.45l-3.93 18.37a24.07 24.07 0 0 1 -3 7.76 21.14 21.14 0 0 1 -5.49 6.16 25.64 25.64 0 0 1 -7.79 3.89 31.18 31.18 0 0 1 -9.57 1.6 22.65 22.65 0 0 1 -7.65-1.3 14 14 0 0 1 -6.27-4.45l-3.32-4.07q-4.12-4.05-5.01-12z"/><path d="m351.78 40.11h-5.5l-2.41 11.43h24.24l2.41-11.43h-4.64l2-9.27h14.25l-2 9.27h-5.38l-2.41 11.43h24.23l2.41-11.43h-4.79l5.53-25.9h4.83l2.41-11.43h-24.23v-2.22h26.94l-.04.22 3.71 4.69-2.34 11.01h.23l.41.53-1.04 4.88h-4.83l-3.6 16.89 3.24 4.1-2.31 10.89h.22l.37.46-1.07 5h-56.93l-4.3-5.46h-.23l3.38-15.88h5.49l3.45-16.18-3.73-4.73 2.29-10.75 1.4.3-1.63 7.68h5.5z"/><path d="m326 117.89h-7.57q4.44-7.64 6.08-10.87a107.54 107.54 0 0 0 1.49 10.87z"/><path d="m320.75 134.75.12-.52h-.52zm-20-8.74-4.17 6.07h-4.83l-2.45 11.46h22.7l2.44-11.46h-4.11l3.22-5.53h13.69l.56 5.53h-4.2l-2.44 11.46h22.54l2.45-11.46.92-2.23h1.75v.22l3.71 4.7-2.34 11h.23l.42.53-1 4.93h-26.84l-3.86-4.9-1 4.9h-26.9l-4.3-5.46h-.23l3.29-15.88h5.64q1.89-2.67 3.47-5z"/><path d="m335.15 94.78h-22.56l-2.37 11.47h4.19l-13.6 19.75-1.71-1.12 3.14-4.62 3.32-4.79q1.65-2.37 3.5-5.12l-1.37-1.85h-.22l3.38-15.92h26.31v.29l4.27 5.38 5.6 31.62-.92 2.23h-4.31z"/><path d="m298.75 2.78-2.13-.45.38-1.77h50.77l-.04.22 3.71 4.69-2.33 10.97h.22l.42.54-2.2 10.33h-13.77l-1.86-2.34-2.74 12.96h.37l-.04.22 4.27 5.45-3.3 15.63h-29.73l-4.3-5.46h-.23l3.38-15.84h5.57l2.26-10.62 2.12.45-2.64 12.39h-5.56l-2.42 11.39h25.5l2.41-11.39h-5.83l5.68-26.64h6.57l-1.3 6.12h9.54l3.56-16.85z"/><path d="m295.19 19.63h9.53l1.3-6.12h6.57l-3.04 14.25-2.12-.45h-10.43l-4.3-5.45h-.22l4.14-19.53 2.13.45z"/><path d="m294.76 222.3a8.54 8.54 0 0 0 5.9-2.56 17.83 17.83 0 0 0 4.71-13.85c-.27 0-.52-.1-.76-.13a4.87 4.87 0 0 0 -.76-.06 7.46 7.46 0 0 0 -3.08.67 10.53 10.53 0 0 0 -2.86 1.89 16.26 16.26 0 0 0 -4.49 8.57 26.05 26.05 0 0 0 -.41 2.77 9.11 9.11 0 0 0 .08 2.39 4.34 4.34 0 0 0 1.67.31zm7.23-1.12a11.09 11.09 0 0 1 -7.71 3.34 7.09 7.09 0 0 1 -6.28-3.34q-2.4-3.68-1.07-9.94a18.52 18.52 0 0 1 5.3-10 11.15 11.15 0 0 1 7.69-3.3 7.07 7.07 0 0 1 6.31 3.3q2.4 3.72 1.07 10a18.3 18.3 0 0 1 -5.31 9.94z"/><path d="m273 201.34-1 4.59h-1.34a30.49 30.49 0 0 1 2.34-4.59z"/><path d="m269 211.24a30.74 30.74 0 0 1 1.63-5.31h1.37l1-4.59a35.92 35.92 0 0 1 8.45-9.4 33.52 33.52 0 0 1 21.46-7.94q11.64 0 18.14 7.94.45.56.84 1.11l.79 1.15 3 3.83q6.12 7.86 3.78 18.77-2.4 11.35-12.35 19.19-9.84 7.94-21.42 7.94t-18.07-7.93l-3.34-4.2-.54-.63-.54-.67q-6.6-7.82-4.2-19.26zm2.23 0q-2.19 10.39 3.86 17.7t16.7 7.35a30.9 30.9 0 0 0 19.82-7.35q9.17-7.31 11.35-17.7t-3.82-17.7q-6-7.32-16.74-7.31a30.77 30.77 0 0 0 -19.78 7.31q-9.17 7.35-11.4 17.7z"/><path d="m249.54 124.36h14.92l-.04.22 4.27 5.46-4.49 21.19h-46.39l-3.88-4.93.64-3.06 1.42.3h42.16l3.6-16.95h-10.47l-2.12-.45z"/><path d="m244.1 186.78-2.41 11.47h5.09l-5.56 25.86h-5l-2.41 11.43h24.19l2.41-11.43h-5.08l5.53-25.86h5l2.42-11.47zm-5.1 13.7 3.38-15.92h28.69v.22l4.3 5.45-2.37 11.11a30.39 30.39 0 0 0 -2.32 4.59h-3.68l-3.53 16.55 4 5.09-3.34 15.66h-28.52l-4.31-5.46h-.22l3.24-15.22q.17-.33.3-.66h4.88l3.5-16.55-3.81-4.86z"/><path d="m239.71 35.74a17.83 17.83 0 0 0 4.71-13.85l-.76-.13a4.87 4.87 0 0 0 -.76-.06 7.46 7.46 0 0 0 -3.08.67 10.53 10.53 0 0 0 -2.82 1.89 16.22 16.22 0 0 0 -4.49 8.57 26.05 26.05 0 0 0 -.41 2.77 9.11 9.11 0 0 0 .08 2.39 4.37 4.37 0 0 0 1.67.34 8.54 8.54 0 0 0 5.86-2.59zm-6.39 4.78a7.08 7.08 0 0 1 -6.27-3.34q-2.42-3.68-1.07-9.94a18.51 18.51 0 0 1 5.3-9.95 11.17 11.17 0 0 1 7.72-3.29 7.05 7.05 0 0 1 6.31 3.3q2.41 3.72 1.08 10a18.3 18.3 0 0 1 -5.39 9.88 11.12 11.12 0 0 1 -7.72 3.34z"/><path d="m234.46 221.89h.16q-.13.33-.3.66z"/><path d="m224.64 92.56h28.69l-.04.22 4.3 5.45-3.34 15.66h-4.64l-3.45 16.18h2.16l.84-3.93 2.12.45-1.22 5.71h-12.06l5.57-26.09h4.63l2.42-11.43h-24.24l-2.41 11.43h5.49l-5.52 25.9h-5.53l-2.42 11.43-1.42-.3 2.8-13.2-.12-.15h4.94l3.45-16.18-4.15-5.27h-.23z"/><path d="m217.25 129.89.12.15-2.8 13.2-.64 3.06-.42-.53h-.23l3.38-15.88z"/><path d="m212.05 17.26-1 4.63h-1.37a29.71 29.71 0 0 1 2.37-4.63z"/><path d="m214 206a7.06 7.06 0 0 0 -3-.67h-4l-3.6 16.89a13.24 13.24 0 0 0 6.27-3.41 20.94 20.94 0 0 0 3-3.7 12.69 12.69 0 0 0 1.72-4 9.32 9.32 0 0 0 .17-2.58 10.51 10.51 0 0 0 -.56-2.53zm2.56 5.12a17.34 17.34 0 0 1 -5.6 9.17q-4.72 4.3-9.69 4.3h-6.12l5.75-26.94h6.1a8.93 8.93 0 0 1 7.83 4.31 11.4 11.4 0 0 1 1.74 9.2z"/><path d="m221.67 9.54q-9.16 7.34-11.39 17.7t3.86 17.7q6 7.35 16.7 7.35a30.82 30.82 0 0 0 19.81-7.35q9.16-7.3 11.36-17.7t-3.79-17.7q-6-7.32-16.74-7.31a30.8 30.8 0 0 0 -19.81 7.31zm-9.62 7.72a36.42 36.42 0 0 1 8.4-9.32 33.47 33.47 0 0 1 21.48-7.94q11.65 0 18.15 7.94c.3.37.57.74.83 1.11l.8 1.15 3 3.83q6.12 7.86 3.78 18.77-2.4 11.36-12.35 19.2-9.82 7.93-21.41 7.94t-18.07-7.94l-3.34-4.2-.54-.63-.54-.67q-6.64-7.87-4.24-19.3a32.11 32.11 0 0 1 1.64-5.35h1.36z"/><path d="m164.67 143.54h42.16l3.6-16.95h-10.47l-2.12-.46.38-1.77h14.92l-.04.22 4.15 5.31h-.59l-3.38 15.88h.23l.42.53-1.05 4.93h-46.39l-3.89-4.94 2.78-13.06 1.4.3z"/><path d="m180.83 189.47.6.76-2.31 10.76-.4-.51h-.23z"/><path d="m181.87 184.56h28q11.41 0 18 7.79c.34.42.68.84 1 1.26a11.17 11.17 0 0 1 .85 1.3l2.45 3.08.44.48q6.09 7.69 3.82 18.3a28.06 28.06 0 0 1 -1.81 5.12h-.16l-.14.66a30.48 30.48 0 0 1 -2.39 4.29 39.45 39.45 0 0 1 -7.83 8.63 39.92 39.92 0 0 1 -10.2 5.7 30.88 30.88 0 0 1 -11 2.06h-27.82l-4.3-5.46h-.23l3.38-15.88h5.49l3.45-16.1-3.75-4.79 2.31-10.76-.6-.76zm27.46 2.22h-25.71l-2.4 11.47h5.5l-5.5 25.83h-5.49l-2.51 11.46h25.72a30.82 30.82 0 0 0 19.63-7.16q9-7.12 11.17-17.22t-3.86-17.22q-5.88-7.12-16.55-7.16z"/><path d="m198.74 132.3h-12.06l5.56-26.09h4.64l2.41-11.43h-24.23l-.79 3.75-1.43-.3-.57-.72 1.05-4.95h28.68l-.03.22 4.3 5.45-3.34 15.66h-4.64l-3.45 16.18h2.15l.85-3.94 2.12.46z"/><path d="m172.27 97.51.57.72-2.29 10.7-.39-.49h-.22z"/><path d="m165.34 129.89h5.53l3.45-16.18-3.77-4.78 2.29-10.7 1.43.3-1.62 7.68h5.49l-5.53 25.9h-5.53l-.3 1.42-1.4-.3-.59-.75z"/><path d="m164.79 132.48.59.75-2.78 13.06-.41-.52h-.23z"/><path d="m152.94.56h30.25v2.22l-2.41 11.43h5.34l-1.26 5.98h-14.25l1.26-5.98h4.64l2.41-11.43h-24.23l-.79 3.75-1.4-.3-.6-.76z"/><path d="m151.9 5.47.6.76-2.29 10.74-.42-.53h-.22z"/><path d="m152.28 14.21h5.49l-5.55 25.9h-5.49l-2.41 11.43h24.23l2.45-11.43h-4.64l2-9.27h14.25l-2 9.27h-5.35l-2.41 11.43h24.15l2.41-11.43h-4.78l5.53-25.9h4.84l2.41-11.43h-24.19v-2.22h26.94v.22l4.31 5.45-2.35 11a29.66 29.66 0 0 0 -2.36 4.63h-3.54l-3.6 16.89 3.79 4.79-3.34 15.66h-56.92l-4.3-5.46h-.22l3.37-15.85h5.5l3.5-16.18-3.78-4.71 2.29-10.74 1.4.3z"/><path d="m124.96 92.56h43.61l-.04.22 3.74 4.73-2.33 10.93h.22l.39.49-1.57 7.34h-5.68l.11.11-2.38 11.17h.12l-.08.22 3.72 4.71-2.83 13.29h.23l.41.52-1.05 4.94h-43.34l-3.94-5.01.64-3 1.48.32h39.12l2.93-13.76h-8.09l-.67 3.15h-11.43l2.04-9.72h13.95l2.19-10.28h-13.95l1.56-7.27h11.43l-.63 2.93h8.09l2.93-13.81h-39.15l-.79 3.74-1.4-.29-.6-.76z"/><path d="m123.92 97.47.6.76-2.3 10.77-.41-.52h-.22z"/><path d="m75.05 51.54h22.38l2.41-11.39h-3l8.72-16.33 1.75 16.33h-3.09l-2.41 11.39h22.75l2.44-11.39h-4.38l15-26h5.49l2.41-11.4h-21l-.68 3.19-2.1-.44 1-5h25.51v.22l3.71 4.69-2.33 11h.22l.42.53-1.08 4.95h-6.09c-1 1.75-2 3.42-2.89 5l-2.73 4.67-2.71 4.64-2.84 4.9 2 2.52-3.3 15.63h-27l-.11-.15v.15h-26.65l-4.3-5.46h-.23l3-14.07 2.12.45z"/><path d="m146.22 217.21 2.37-11.2h-5.12l-3.47 16.43a6.77 6.77 0 0 0 5.12-2.93 9.8 9.8 0 0 0 1.1-2.3zm6.23-18.89-4 19a10.66 10.66 0 0 1 -3.78 5.53 8.53 8.53 0 0 1 -5.31 1.85h-.11a5.42 5.42 0 0 1 -4.38-1.85c-1.24-1.29-1.72-3.14-1.45-5.53l4-19h5.8l2.45-11.54h-25.21l-.8 3.75-1.39-.3-.61-.77 1-4.9h30.43v2.22l-2.45 11.54z"/><path d="m123.76 198.32-3.71 17.48q-1.83 8.46 3.17 14.51t13.7 6.05a25.57 25.57 0 0 0 16.3-6.05 25 25 0 0 0 9.27-14.51l3.73-17.48h5.83l2.45-11.54h-25.36v-2.22h28v.22l3.71 4.69-2.34 11h.23l.4.51-1.07 5h-5.85l-3.22 15.36q-2 9.32-10.24 16a28 28 0 0 1 -17.93 6.66 21.16 21.16 0 0 1 -8.57-1.63 17.15 17.15 0 0 1 -6.5-5l-3.23-4.12a6.45 6.45 0 0 1 -.63-.65c-.2-.23-.39-.47-.59-.72q-5.49-6.69-3.49-16.11l2.08-9.77h-.08l-3.82-4.95 2.32-10.87 1.39.3-1.71 7.79z"/><path d="m117.66 189.46.61.77-2.32 10.87-.43-.55h-.22z"/><path d="m124.33 132.08h-5.49l-2.45 11.46-1.48-.32 1.63-7.65-.55-.69 1.07-5.03h5.49l3.42-16.07-3.75-4.78 2.3-10.77 1.4.29-1.62 7.73h5.53z"/><path d="m115.99 134.88.55.69-1.63 7.65-.64 3-.36-.45h-.23z"/><path d="m103.07.56h14.93v.33l3.71 4.68 2.1.44-1.73 8.21h2.82c-.69 1.75-1.42 3.4-2.19 4.93a104.84 104.84 0 0 0 -6.71 16.25 86.49 86.49 0 0 0 .15-16.25q-.3-11.61-.34-15.81v-.52h-11.48l-1.88-.93z"/><path d="m72.53.56h26.12v.22l2.74 3.52a1.56 1.56 0 0 0 .17-.37 1.76 1.76 0 0 1 .17-.37.84.84 0 0 0 0-.17.34.34 0 0 1 .1-.16l.17-.23a.42.42 0 0 1 .11-.18l.42-.93 1.88.85-.22.52q-1.81 4.2-7 15.81a101.78 101.78 0 0 0 -6.79 16.25 81.71 81.71 0 0 0 .15-16.25c-.07-2.27-.11-3.92-.11-4.93h3.15l2.41-11.36h-21.73l-2.12-.45z"/><path d="m77.46 40.15-2.12-.45.38-1.77h3.15c-.24-1.56-.47-3.08-.68-4.55s-.44-3-.69-4.44c-.15-1.18-.31-2.36-.5-3.52s-.38-2.35-.57-3.56h-2.75l-4.31-5.46h-.22l3-14.07 2.12.45-2.41 11.4h5.79l4 26z"/><path d="m71.4 221.93 2.26-10.62 2.12.45-2.64 12.39h-5.57l-2.41 11.39h25.5l2.41-11.39h-5.83l5.68-26.64h6.57l-1.3 6.12h9.54l3.56-16.85h-46.31l-3.57 16.85-2.13-.45 3.95-18.62h50.77l-.04.22 3.7 4.68-2.36 11.09h.22l.43.55-2.17 10.21h-13.77l-1.86-2.34-2.74 12.96h.37l-.04.22 4.27 5.45-3.3 15.63h-29.73l-4.3-5.46h-.23l3.38-15.84z"/><path d="m63.07 92.56h30.24v2.22l-2.41 11.43h5.34l-1.26 5.98h-14.25l1.26-5.98h4.64l2.41-11.43h-24.23l-2.41 11.43h5.49l-1.7 7.95-2.12-.45-4.16-5.27h-.22z"/><path d="m58.71 205.86.57-2.68 2.13.45h9.54l1.3-6.12h6.57l-3.04 14.25-2.12-.45h-10.43l-4.3-5.45z"/><path d="m51.75 145.77 3.37-15.88h5.5l3.45-16.18 2.12.45-3.83 17.95h-5.49l-2.41 11.43h24.23l2.41-11.43h-4.64l2.01-9.27h14.25l-2.01 9.27h-5.38l-2.41 11.43h24.23l2.41-11.43h-4.78l5.53-25.9h4.82l2.41-11.43h-24.23v-2.22h26.94l-.04.22 3.71 4.69-2.33 11.01h.22l.41.52-1.04 4.89h-4.82l-3.6 16.89 3.23 4.1-2.31 10.89h.23l.36.45-1.07 5.01h-56.93l-4.3-5.46z"/><path d="m16.55 240.89q.11.18 0 .09a.25.25 0 0 1 -.11-.17c-.25.49-.47.95-.67 1.39l-.52 1.13h-10.69l-4.34-5.44h-.22l.57-2.68 2.13.45h6.94l2-4a11.38 11.38 0 0 0 2 1.86q3.41 2.78 10.13 2.82 8.49 0 13.43-2.34a18.87 18.87 0 0 0 5.53-3.82 22.46 22.46 0 0 0 3.27-4.09 19.77 19.77 0 0 0 2.7-6.38 13 13 0 0 0 .26-4.27 11.34 11.34 0 0 0 -.92-3.75l2-1.59 3 3.75a12 12 0 0 1 2.52 6.57v2.41a13.57 13.57 0 0 1 -.31 2.45 23.25 23.25 0 0 1 -3 7.2c-.57.86-1.16 1.68-1.77 2.45a20.29 20.29 0 0 1 -2 2.15 24 24 0 0 1 -3 2.5 21.26 21.26 0 0 1 -3.28 1.88q-5.49 2.59-14.44 2.6-7.38 0-11.06-3l-.22-.15z"/><path d="m34 186.23q-7.53 0-11.84 1.67a17 17 0 0 0 -4.34 2.48 19.15 19.15 0 0 0 -3.4 3.45l-1.69-1a20 20 0 0 1 3.86-4 23.44 23.44 0 0 1 2.56-1.73 18.78 18.78 0 0 1 2.6-1.24 29.17 29.17 0 0 1 5.59-1.34 47.33 47.33 0 0 1 7.14-.48 25 25 0 0 1 5.18.54 18.13 18.13 0 0 1 4.12 1.31l.71-1.37h10.91v.22l4.3 5.45-4 18.63h-6.31a1.52 1.52 0 0 1 .24.41 1.52 1.52 0 0 0 .24.41l.3.37-2 1.59a9.46 9.46 0 0 0 -4.17-4.41q-3.3-1.81-10.76-2.86c-4.41-.52-7.07-1.1-8-1.74a2.45 2.45 0 0 1 -1.24-2.59v-.18a3.29 3.29 0 0 1 1.81-2.08q1.79-1.11 6-1.11a16.07 16.07 0 0 1 5.6.66 4 4 0 0 1 2 3.9h10.2l3-14.4h-6.94l-1.22 2.45a11.74 11.74 0 0 0 -1.63-1.07q-3.1-1.86-8.79-1.89z"/><path d="m25.31 224.89h1.11a12 12 0 0 0 4.56-.74l-.37-.08a1.58 1.58 0 0 1 -.37-.11c-1.54-.29-2.92-.58-4.16-.87s-2.29-.55-3.15-.8h-.08l1.89 2.38v.18a3.64 3.64 0 0 0 .57.04zm-14.44-23.3a13.94 13.94 0 0 0 -.11 5.27 8.7 8.7 0 0 0 4.75 6.38 25 25 0 0 0 4 1.49c1.76.49 4.18 1 7.27 1.63 1.74.4 3.39.74 5 1a8.69 8.69 0 0 1 2.22 1 3.22 3.22 0 0 1 1.27 3.56 5.88 5.88 0 0 1 -3.2 4 13.55 13.55 0 0 1 -6.07 1.19h-.41a9.3 9.3 0 0 1 -4.94-1.19 6 6 0 0 1 -2.41-4.71h-12.45l-3 14.36-2.13-.45 3.43-16.12h12a4.29 4.29 0 0 1 -1-1.08l-3.67-4.67a11 11 0 0 1 -2.93-5.57 15.76 15.76 0 0 1 .15-6.12 19.62 19.62 0 0 1 .53-2 19.93 19.93 0 0 1 .73-1.95 28.24 28.24 0 0 1 2.85-4.83l1.69 1a20.64 20.64 0 0 0 -2.44 4.22 21 21 0 0 0 -1.13 3.59z"/></svg>